<mxfile host="Electron" modified="2024-04-12T06:45:28.926Z" agent="Mozilla/5.0 (Windows NT 10.0; Win64; x64) AppleWebKit/537.36 (KHTML, like Gecko) draw.io/22.1.18 Chrome/120.0.6099.199 Electron/28.1.2 Safari/537.36" etag="4SLFuIFoc_PKj-PwwJ44" version="22.1.18" type="device" pages="4">
  <diagram name="Data model" id="uVFDdQr_WbjRN2Vgt4Rq">
    <mxGraphModel dx="1221" dy="1698" grid="0" gridSize="10" guides="1" tooltips="1" connect="1" arrows="1" fold="1" page="1" pageScale="1" pageWidth="1169" pageHeight="827" math="0" shadow="0">
      <root>
        <mxCell id="0" />
        <mxCell id="1" parent="0" />
        <mxCell id="9KqP5izkzICnF01OYOkt-88" value="ZooKeeper" style="ellipse;shape=cloud;whiteSpace=wrap;html=1;fillColor=#a20025;fontColor=#ffffff;strokeColor=#6F0000;" parent="1" vertex="1">
          <mxGeometry x="498" y="-751" width="145" height="86" as="geometry" />
        </mxCell>
        <mxCell id="9KqP5izkzICnF01OYOkt-89" value="/storage-layer" style="rounded=0;whiteSpace=wrap;html=1;fillColor=#f5f5f5;fontColor=#333333;strokeColor=#666666;" parent="1" vertex="1">
          <mxGeometry x="515" y="-642" width="121" height="43" as="geometry" />
        </mxCell>
        <mxCell id="9KqP5izkzICnF01OYOkt-90" value="bookies" style="rounded=0;whiteSpace=wrap;html=1;fillColor=#dae8fc;strokeColor=#6c8ebf;" parent="1" vertex="1">
          <mxGeometry x="331" y="-544" width="86" height="43" as="geometry" />
        </mxCell>
        <mxCell id="9KqP5izkzICnF01OYOkt-91" value="segments" style="rounded=0;whiteSpace=wrap;html=1;fillColor=#dae8fc;strokeColor=#6c8ebf;" parent="1" vertex="1">
          <mxGeometry x="715" y="-544" width="86" height="43" as="geometry" />
        </mxCell>
        <mxCell id="9KqP5izkzICnF01OYOkt-92" value="" style="endArrow=classic;html=1;rounded=0;entryX=0.831;entryY=0.016;entryDx=0;entryDy=0;entryPerimeter=0;exitX=0.087;exitY=1.014;exitDx=0;exitDy=0;exitPerimeter=0;" parent="1" source="9KqP5izkzICnF01OYOkt-89" target="9KqP5izkzICnF01OYOkt-90" edge="1">
          <mxGeometry width="50" height="50" relative="1" as="geometry">
            <mxPoint x="523" y="-597" as="sourcePoint" />
            <mxPoint x="573" y="-647" as="targetPoint" />
          </mxGeometry>
        </mxCell>
        <mxCell id="9KqP5izkzICnF01OYOkt-93" value="" style="endArrow=classic;html=1;rounded=0;exitX=0.892;exitY=1.028;exitDx=0;exitDy=0;exitPerimeter=0;entryX=0.104;entryY=0.002;entryDx=0;entryDy=0;entryPerimeter=0;" parent="1" source="9KqP5izkzICnF01OYOkt-89" target="9KqP5izkzICnF01OYOkt-91" edge="1">
          <mxGeometry width="50" height="50" relative="1" as="geometry">
            <mxPoint x="594" y="-556" as="sourcePoint" />
            <mxPoint x="644" y="-606" as="targetPoint" />
          </mxGeometry>
        </mxCell>
        <mxCell id="9KqP5izkzICnF01OYOkt-94" value="127.0.0.1:10001" style="rounded=1;whiteSpace=wrap;html=1;fillColor=#d5e8d4;strokeColor=#82b366;dashed=1;" parent="1" vertex="1">
          <mxGeometry x="80" y="-438" width="90" height="43" as="geometry" />
        </mxCell>
        <mxCell id="9KqP5izkzICnF01OYOkt-95" value="" style="endArrow=classic;html=1;rounded=0;entryX=0.25;entryY=0;entryDx=0;entryDy=0;" parent="1" source="9KqP5izkzICnF01OYOkt-90" target="9KqP5izkzICnF01OYOkt-94" edge="1">
          <mxGeometry width="50" height="50" relative="1" as="geometry">
            <mxPoint x="350" y="-499" as="sourcePoint" />
            <mxPoint x="400" y="-549" as="targetPoint" />
          </mxGeometry>
        </mxCell>
        <mxCell id="9KqP5izkzICnF01OYOkt-96" value="127.0.0.1:10003" style="rounded=1;whiteSpace=wrap;html=1;fillColor=#d5e8d4;strokeColor=#82b366;dashed=1;" parent="1" vertex="1">
          <mxGeometry x="309" y="-438" width="92" height="43" as="geometry" />
        </mxCell>
        <mxCell id="9KqP5izkzICnF01OYOkt-97" value="" style="endArrow=classic;html=1;rounded=0;entryX=0.859;entryY=0.031;entryDx=0;entryDy=0;entryPerimeter=0;exitX=0.872;exitY=1.023;exitDx=0;exitDy=0;exitPerimeter=0;" parent="1" source="9KqP5izkzICnF01OYOkt-90" target="9KqP5izkzICnF01OYOkt-96" edge="1">
          <mxGeometry width="50" height="50" relative="1" as="geometry">
            <mxPoint x="427" y="-494" as="sourcePoint" />
            <mxPoint x="477" y="-544" as="targetPoint" />
          </mxGeometry>
        </mxCell>
        <mxCell id="9KqP5izkzICnF01OYOkt-98" value="" style="endArrow=none;dashed=1;html=1;dashPattern=1 3;strokeWidth=2;rounded=0;entryX=0;entryY=0.5;entryDx=0;entryDy=0;exitX=1;exitY=0.5;exitDx=0;exitDy=0;" parent="1" source="9KqP5izkzICnF01OYOkt-94" target="9KqP5izkzICnF01OYOkt-96" edge="1">
          <mxGeometry width="50" height="50" relative="1" as="geometry">
            <mxPoint x="313" y="-422" as="sourcePoint" />
            <mxPoint x="334" y="-466" as="targetPoint" />
          </mxGeometry>
        </mxCell>
        <mxCell id="oNZXzhCJWAnrHKQniJvi-1" value="segment#1&lt;br&gt;(children watched)" style="rounded=0;whiteSpace=wrap;html=1;fillColor=#ffe6cc;strokeColor=#d79b00;" parent="1" vertex="1">
          <mxGeometry x="727" y="-438" width="111" height="43" as="geometry" />
        </mxCell>
        <mxCell id="oNZXzhCJWAnrHKQniJvi-2" value="" style="endArrow=classic;html=1;rounded=0;entryX=0.155;entryY=-0.013;entryDx=0;entryDy=0;entryPerimeter=0;exitX=0.124;exitY=1.016;exitDx=0;exitDy=0;exitPerimeter=0;" parent="1" source="9KqP5izkzICnF01OYOkt-91" target="oNZXzhCJWAnrHKQniJvi-1" edge="1">
          <mxGeometry width="50" height="50" relative="1" as="geometry">
            <mxPoint x="667" y="-365" as="sourcePoint" />
            <mxPoint x="717" y="-415" as="targetPoint" />
          </mxGeometry>
        </mxCell>
        <mxCell id="oNZXzhCJWAnrHKQniJvi-3" value="segment#N" style="rounded=0;whiteSpace=wrap;html=1;fillColor=#ffe6cc;strokeColor=#d79b00;" parent="1" vertex="1">
          <mxGeometry x="978" y="-438" width="86" height="43" as="geometry" />
        </mxCell>
        <mxCell id="oNZXzhCJWAnrHKQniJvi-4" value="" style="endArrow=classic;html=1;rounded=0;entryX=0.25;entryY=0;entryDx=0;entryDy=0;exitX=0.872;exitY=1;exitDx=0;exitDy=0;exitPerimeter=0;" parent="1" source="9KqP5izkzICnF01OYOkt-91" target="oNZXzhCJWAnrHKQniJvi-3" edge="1">
          <mxGeometry width="50" height="50" relative="1" as="geometry">
            <mxPoint x="782" y="-490" as="sourcePoint" />
            <mxPoint x="750" y="-429" as="targetPoint" />
          </mxGeometry>
        </mxCell>
        <mxCell id="oNZXzhCJWAnrHKQniJvi-7" value="" style="endArrow=none;dashed=1;html=1;dashPattern=1 3;strokeWidth=2;rounded=0;entryX=0;entryY=0.5;entryDx=0;entryDy=0;exitX=1;exitY=0.5;exitDx=0;exitDy=0;" parent="1" source="oNZXzhCJWAnrHKQniJvi-1" target="oNZXzhCJWAnrHKQniJvi-3" edge="1">
          <mxGeometry width="50" height="50" relative="1" as="geometry">
            <mxPoint x="863" y="-403" as="sourcePoint" />
            <mxPoint x="913" y="-453" as="targetPoint" />
          </mxGeometry>
        </mxCell>
        <mxCell id="-jLr1k_K2wEaoerx-H1T-16" value="Metadata(watched+regular)" style="swimlane;fontStyle=0;childLayout=stackLayout;horizontal=1;startSize=30;horizontalStack=0;resizeParent=1;resizeParentMax=0;resizeLast=0;collapsible=1;marginBottom=0;whiteSpace=wrap;html=1;fillColor=#fff2cc;strokeColor=#d6b656;" parent="1" vertex="1">
          <mxGeometry x="491" y="-360" width="194" height="78" as="geometry" />
        </mxCell>
        <mxCell id="-jLr1k_K2wEaoerx-H1T-18" value="leader: used for serving append and leader election trigger." style="text;strokeColor=none;fillColor=none;align=left;verticalAlign=middle;spacingLeft=4;spacingRight=4;overflow=hidden;points=[[0,0.5],[1,0.5]];portConstraint=eastwest;rotatable=0;whiteSpace=wrap;html=1;" parent="-jLr1k_K2wEaoerx-H1T-16" vertex="1">
          <mxGeometry y="30" width="194" height="48" as="geometry" />
        </mxCell>
        <mxCell id="-jLr1k_K2wEaoerx-H1T-20" value="" style="endArrow=classic;html=1;rounded=0;entryX=0.167;entryY=0.004;entryDx=0;entryDy=0;entryPerimeter=0;exitX=0;exitY=1;exitDx=0;exitDy=0;" parent="1" source="oNZXzhCJWAnrHKQniJvi-1" target="-jLr1k_K2wEaoerx-H1T-16" edge="1">
          <mxGeometry width="50" height="50" relative="1" as="geometry">
            <mxPoint x="786" y="-413" as="sourcePoint" />
            <mxPoint x="836" y="-463" as="targetPoint" />
          </mxGeometry>
        </mxCell>
        <mxCell id="-jLr1k_K2wEaoerx-H1T-21" value="Bookies(sequential+ephemeral)" style="swimlane;fontStyle=0;childLayout=stackLayout;horizontal=1;startSize=30;horizontalStack=0;resizeParent=1;resizeParentMax=0;resizeLast=0;collapsible=1;marginBottom=0;whiteSpace=wrap;html=1;fillColor=#fff2cc;strokeColor=#d6b656;rounded=1;glass=0;shadow=1;dashed=1;" parent="1" vertex="1">
          <mxGeometry x="727" y="-360" width="211" height="64" as="geometry" />
        </mxCell>
        <mxCell id="-jLr1k_K2wEaoerx-H1T-22" value="offset: used for leader election winner rule." style="text;strokeColor=none;fillColor=none;align=left;verticalAlign=middle;spacingLeft=4;spacingRight=4;overflow=hidden;points=[[0,0.5],[1,0.5]];portConstraint=eastwest;rotatable=0;whiteSpace=wrap;html=1;" parent="-jLr1k_K2wEaoerx-H1T-21" vertex="1">
          <mxGeometry y="30" width="211" height="34" as="geometry" />
        </mxCell>
        <mxCell id="-jLr1k_K2wEaoerx-H1T-24" value="" style="endArrow=classic;html=1;rounded=0;exitX=0.382;exitY=0.982;exitDx=0;exitDy=0;exitPerimeter=0;entryX=0.433;entryY=0.001;entryDx=0;entryDy=0;entryPerimeter=0;" parent="1" source="oNZXzhCJWAnrHKQniJvi-1" target="-jLr1k_K2wEaoerx-H1T-21" edge="1">
          <mxGeometry width="50" height="50" relative="1" as="geometry">
            <mxPoint x="799" y="-387" as="sourcePoint" />
            <mxPoint x="849" y="-437" as="targetPoint" />
          </mxGeometry>
        </mxCell>
        <mxCell id="cBFRvptxgo-iIyAFb1v--16" value="Local Filesystem" style="ellipse;shape=cloud;whiteSpace=wrap;html=1;fillColor=#a20025;fontColor=#ffffff;strokeColor=#6F0000;" parent="1" vertex="1">
          <mxGeometry x="457" y="13" width="145" height="86" as="geometry" />
        </mxCell>
        <mxCell id="cBFRvptxgo-iIyAFb1v--18" value="Segments" style="swimlane;fontStyle=0;childLayout=stackLayout;horizontal=1;startSize=30;horizontalStack=0;resizeParent=1;resizeParentMax=0;resizeLast=0;collapsible=1;marginBottom=0;whiteSpace=wrap;html=1;fillColor=#008a00;fontColor=#ffffff;strokeColor=#005700;" parent="1" vertex="1">
          <mxGeometry x="329" y="157" width="367" height="150" as="geometry" />
        </mxCell>
        <mxCell id="cBFRvptxgo-iIyAFb1v--19" value="Segment#1 : [state, payload_size] payload data" style="text;strokeColor=none;fillColor=none;align=left;verticalAlign=middle;spacingLeft=4;spacingRight=4;overflow=hidden;points=[[0,0.5],[1,0.5]];portConstraint=eastwest;rotatable=0;whiteSpace=wrap;html=1;" parent="cBFRvptxgo-iIyAFb1v--18" vertex="1">
          <mxGeometry y="30" width="367" height="30" as="geometry" />
        </mxCell>
        <mxCell id="cBFRvptxgo-iIyAFb1v--22" value="Segment#2 : [state, payload_size] payload data" style="text;strokeColor=none;fillColor=none;align=left;verticalAlign=middle;spacingLeft=4;spacingRight=4;overflow=hidden;points=[[0,0.5],[1,0.5]];portConstraint=eastwest;rotatable=0;whiteSpace=wrap;html=1;" parent="cBFRvptxgo-iIyAFb1v--18" vertex="1">
          <mxGeometry y="60" width="367" height="30" as="geometry" />
        </mxCell>
        <mxCell id="cBFRvptxgo-iIyAFb1v--24" value="..........................................................................." style="text;strokeColor=none;fillColor=none;align=left;verticalAlign=middle;spacingLeft=4;spacingRight=4;overflow=hidden;points=[[0,0.5],[1,0.5]];portConstraint=eastwest;rotatable=0;whiteSpace=wrap;html=1;" parent="cBFRvptxgo-iIyAFb1v--18" vertex="1">
          <mxGeometry y="90" width="367" height="30" as="geometry" />
        </mxCell>
        <mxCell id="cBFRvptxgo-iIyAFb1v--23" value="Segment#N : [state, payload_size] payload data" style="text;strokeColor=none;fillColor=none;align=left;verticalAlign=middle;spacingLeft=4;spacingRight=4;overflow=hidden;points=[[0,0.5],[1,0.5]];portConstraint=eastwest;rotatable=0;whiteSpace=wrap;html=1;" parent="cBFRvptxgo-iIyAFb1v--18" vertex="1">
          <mxGeometry y="120" width="367" height="30" as="geometry" />
        </mxCell>
        <mxCell id="kdfMA9JSQNeS2dC5fkyk-1" value="Bookie State" style="swimlane;fontStyle=0;childLayout=stackLayout;horizontal=1;startSize=40;horizontalStack=0;resizeParent=1;resizeParentMax=0;resizeLast=0;collapsible=1;marginBottom=0;whiteSpace=wrap;html=1;fontSize=16;fillColor=#0050ef;fontColor=#ffffff;strokeColor=#001DBC;" parent="1" vertex="1">
          <mxGeometry x="1284" y="-751" width="240" height="430" as="geometry" />
        </mxCell>
        <mxCell id="kdfMA9JSQNeS2dC5fkyk-2" value="ZK State" style="text;strokeColor=none;fillColor=none;align=left;verticalAlign=middle;spacingLeft=4;spacingRight=4;overflow=hidden;points=[[0,0.5],[1,0.5]];portConstraint=eastwest;rotatable=0;whiteSpace=wrap;html=1;fontSize=16;fontColor=#C70000;fontStyle=1" parent="kdfMA9JSQNeS2dC5fkyk-1" vertex="1">
          <mxGeometry y="40" width="240" height="30" as="geometry" />
        </mxCell>
        <mxCell id="kdfMA9JSQNeS2dC5fkyk-3" value="&lt;b&gt;usedStorage&lt;/b&gt;" style="text;strokeColor=none;fillColor=none;align=left;verticalAlign=middle;spacingLeft=4;spacingRight=4;overflow=hidden;points=[[0,0.5],[1,0.5]];portConstraint=eastwest;rotatable=0;whiteSpace=wrap;html=1;" parent="kdfMA9JSQNeS2dC5fkyk-1" vertex="1">
          <mxGeometry y="70" width="240" height="30" as="geometry" />
        </mxCell>
        <mxCell id="kdfMA9JSQNeS2dC5fkyk-4" value="&lt;b&gt;freeStorage&lt;/b&gt;" style="text;strokeColor=none;fillColor=none;align=left;verticalAlign=middle;spacingLeft=4;spacingRight=4;overflow=hidden;points=[[0,0.5],[1,0.5]];portConstraint=eastwest;rotatable=0;whiteSpace=wrap;html=1;" parent="kdfMA9JSQNeS2dC5fkyk-1" vertex="1">
          <mxGeometry y="100" width="240" height="30" as="geometry" />
        </mxCell>
        <mxCell id="kdfMA9JSQNeS2dC5fkyk-5" value="&lt;b&gt;bookieZNodesForSegments&lt;/b&gt;" style="text;strokeColor=none;fillColor=none;align=left;verticalAlign=middle;spacingLeft=4;spacingRight=4;overflow=hidden;points=[[0,0.5],[1,0.5]];portConstraint=eastwest;rotatable=0;whiteSpace=wrap;html=1;" parent="kdfMA9JSQNeS2dC5fkyk-1" vertex="1">
          <mxGeometry y="130" width="240" height="30" as="geometry" />
        </mxCell>
        <mxCell id="kdfMA9JSQNeS2dC5fkyk-6" value="Persistent State" style="text;strokeColor=none;fillColor=none;align=left;verticalAlign=middle;spacingLeft=4;spacingRight=4;overflow=hidden;points=[[0,0.5],[1,0.5]];portConstraint=eastwest;rotatable=0;whiteSpace=wrap;html=1;fontSize=16;fontColor=#C70000;fontStyle=1" parent="kdfMA9JSQNeS2dC5fkyk-1" vertex="1">
          <mxGeometry y="160" width="240" height="30" as="geometry" />
        </mxCell>
        <mxCell id="kdfMA9JSQNeS2dC5fkyk-7" value="&lt;b&gt;involvedPrimarySegments&lt;/b&gt;" style="text;strokeColor=none;fillColor=none;align=left;verticalAlign=middle;spacingLeft=4;spacingRight=4;overflow=hidden;points=[[0,0.5],[1,0.5]];portConstraint=eastwest;rotatable=0;whiteSpace=wrap;html=1;" parent="kdfMA9JSQNeS2dC5fkyk-1" vertex="1">
          <mxGeometry y="190" width="240" height="30" as="geometry" />
        </mxCell>
        <mxCell id="kdfMA9JSQNeS2dC5fkyk-8" value="&lt;b&gt;involvedBackupSegments&lt;/b&gt;" style="text;strokeColor=none;fillColor=none;align=left;verticalAlign=middle;spacingLeft=4;spacingRight=4;overflow=hidden;points=[[0,0.5],[1,0.5]];portConstraint=eastwest;rotatable=0;whiteSpace=wrap;html=1;" parent="kdfMA9JSQNeS2dC5fkyk-1" vertex="1">
          <mxGeometry y="220" width="240" height="30" as="geometry" />
        </mxCell>
        <mxCell id="kdfMA9JSQNeS2dC5fkyk-9" value="&lt;b&gt;usedStorage&lt;/b&gt;" style="text;strokeColor=none;fillColor=none;align=left;verticalAlign=middle;spacingLeft=4;spacingRight=4;overflow=hidden;points=[[0,0.5],[1,0.5]];portConstraint=eastwest;rotatable=0;whiteSpace=wrap;html=1;" parent="kdfMA9JSQNeS2dC5fkyk-1" vertex="1">
          <mxGeometry y="250" width="240" height="30" as="geometry" />
        </mxCell>
        <mxCell id="kdfMA9JSQNeS2dC5fkyk-10" value="&lt;b&gt;freeStorage&lt;/b&gt;" style="text;strokeColor=none;fillColor=none;align=left;verticalAlign=middle;spacingLeft=4;spacingRight=4;overflow=hidden;points=[[0,0.5],[1,0.5]];portConstraint=eastwest;rotatable=0;whiteSpace=wrap;html=1;" parent="kdfMA9JSQNeS2dC5fkyk-1" vertex="1">
          <mxGeometry y="280" width="240" height="30" as="geometry" />
        </mxCell>
        <mxCell id="kdfMA9JSQNeS2dC5fkyk-11" value="&lt;b&gt;segments&lt;/b&gt;" style="text;strokeColor=none;fillColor=none;align=left;verticalAlign=middle;spacingLeft=4;spacingRight=4;overflow=hidden;points=[[0,0.5],[1,0.5]];portConstraint=eastwest;rotatable=0;whiteSpace=wrap;html=1;" parent="kdfMA9JSQNeS2dC5fkyk-1" vertex="1">
          <mxGeometry y="310" width="240" height="30" as="geometry" />
        </mxCell>
        <mxCell id="r--tuklwlrqZxztF19f_-1" value="Volatile State" style="text;strokeColor=none;fillColor=none;align=left;verticalAlign=middle;spacingLeft=4;spacingRight=4;overflow=hidden;points=[[0,0.5],[1,0.5]];portConstraint=eastwest;rotatable=0;whiteSpace=wrap;html=1;fontSize=16;fontColor=#C70000;fontStyle=1" parent="kdfMA9JSQNeS2dC5fkyk-1" vertex="1">
          <mxGeometry y="340" width="240" height="30" as="geometry" />
        </mxCell>
        <mxCell id="r--tuklwlrqZxztF19f_-3" value="&lt;b&gt;segmentLocks&lt;/b&gt;" style="text;strokeColor=none;fillColor=none;align=left;verticalAlign=middle;spacingLeft=4;spacingRight=4;overflow=hidden;points=[[0,0.5],[1,0.5]];portConstraint=eastwest;rotatable=0;whiteSpace=wrap;html=1;" parent="kdfMA9JSQNeS2dC5fkyk-1" vertex="1">
          <mxGeometry y="370" width="240" height="30" as="geometry" />
        </mxCell>
        <mxCell id="r--tuklwlrqZxztF19f_-4" value="&lt;b&gt;metadataLock&lt;/b&gt;" style="text;strokeColor=none;fillColor=none;align=left;verticalAlign=middle;spacingLeft=4;spacingRight=4;overflow=hidden;points=[[0,0.5],[1,0.5]];portConstraint=eastwest;rotatable=0;whiteSpace=wrap;html=1;" parent="kdfMA9JSQNeS2dC5fkyk-1" vertex="1">
          <mxGeometry y="400" width="240" height="30" as="geometry" />
        </mxCell>
      </root>
    </mxGraphModel>
  </diagram>
  <diagram id="VJXHTvjeIrH-QuOR8LL8" name="Spec">
    <mxGraphModel dx="1285" dy="917" grid="0" gridSize="10" guides="1" tooltips="1" connect="1" arrows="1" fold="1" page="1" pageScale="1" pageWidth="1169" pageHeight="827" math="0" shadow="0">
      <root>
        <mxCell id="0" />
        <mxCell id="1" parent="0" />
        <mxCell id="CgTQPgQeJVzxc54Ci74p-1" value="CreatePrimarySegment" style="shape=process;whiteSpace=wrap;html=1;backgroundOutline=1;fontSize=16;" parent="1" vertex="1">
          <mxGeometry x="480" y="80" width="240" height="80" as="geometry" />
        </mxCell>
        <mxCell id="CgTQPgQeJVzxc54Ci74p-2" value="Bookie#1" style="rounded=0;whiteSpace=wrap;html=1;" parent="1" vertex="1">
          <mxGeometry x="320" y="200" width="80" height="40" as="geometry" />
        </mxCell>
        <mxCell id="CgTQPgQeJVzxc54Ci74p-3" value="Bookie#2" style="rounded=0;whiteSpace=wrap;html=1;" parent="1" vertex="1">
          <mxGeometry x="560" y="200" width="80" height="40" as="geometry" />
        </mxCell>
        <mxCell id="CgTQPgQeJVzxc54Ci74p-4" value="Bookie#3" style="rounded=0;whiteSpace=wrap;html=1;" parent="1" vertex="1">
          <mxGeometry x="800" y="200" width="80" height="40" as="geometry" />
        </mxCell>
        <mxCell id="CgTQPgQeJVzxc54Ci74p-5" value="" style="endArrow=none;dashed=1;html=1;rounded=0;" parent="1" target="CgTQPgQeJVzxc54Ci74p-2" edge="1">
          <mxGeometry width="50" height="50" relative="1" as="geometry">
            <mxPoint x="360" y="720" as="sourcePoint" />
            <mxPoint x="360" y="240" as="targetPoint" />
          </mxGeometry>
        </mxCell>
        <mxCell id="CgTQPgQeJVzxc54Ci74p-6" value="" style="endArrow=none;dashed=1;html=1;rounded=0;" parent="1" target="CgTQPgQeJVzxc54Ci74p-3" edge="1">
          <mxGeometry width="50" height="50" relative="1" as="geometry">
            <mxPoint x="600" y="720" as="sourcePoint" />
            <mxPoint x="599.64" y="240" as="targetPoint" />
          </mxGeometry>
        </mxCell>
        <mxCell id="CgTQPgQeJVzxc54Ci74p-7" value="" style="endArrow=none;dashed=1;html=1;rounded=0;" parent="1" target="CgTQPgQeJVzxc54Ci74p-4" edge="1">
          <mxGeometry width="50" height="50" relative="1" as="geometry">
            <mxPoint x="840" y="720" as="sourcePoint" />
            <mxPoint x="839.64" y="240" as="targetPoint" />
          </mxGeometry>
        </mxCell>
        <mxCell id="CgTQPgQeJVzxc54Ci74p-16" value="" style="endArrow=classic;html=1;rounded=0;" parent="1" edge="1">
          <mxGeometry width="50" height="50" relative="1" as="geometry">
            <mxPoint x="370" y="520" as="sourcePoint" />
            <mxPoint x="590" y="520" as="targetPoint" />
          </mxGeometry>
        </mxCell>
        <mxCell id="CgTQPgQeJVzxc54Ci74p-17" value="CreateBackup and monitor" style="text;html=1;strokeColor=none;fillColor=none;align=center;verticalAlign=middle;whiteSpace=wrap;rounded=0;" parent="1" vertex="1">
          <mxGeometry x="400" y="480" width="160" height="30" as="geometry" />
        </mxCell>
        <mxCell id="CgTQPgQeJVzxc54Ci74p-19" value="" style="endArrow=classic;html=1;rounded=0;" parent="1" edge="1">
          <mxGeometry width="50" height="50" relative="1" as="geometry">
            <mxPoint x="610" y="560" as="sourcePoint" />
            <mxPoint x="830" y="560" as="targetPoint" />
          </mxGeometry>
        </mxCell>
        <mxCell id="CgTQPgQeJVzxc54Ci74p-20" value="" style="endArrow=classic;html=1;rounded=0;" parent="1" edge="1">
          <mxGeometry width="50" height="50" relative="1" as="geometry">
            <mxPoint x="590" y="600" as="sourcePoint" />
            <mxPoint x="370" y="600" as="targetPoint" />
          </mxGeometry>
        </mxCell>
        <mxCell id="CgTQPgQeJVzxc54Ci74p-21" value="OK" style="text;html=1;strokeColor=none;fillColor=none;align=center;verticalAlign=middle;whiteSpace=wrap;rounded=0;" parent="1" vertex="1">
          <mxGeometry x="400" y="560" width="160" height="30" as="geometry" />
        </mxCell>
        <mxCell id="CgTQPgQeJVzxc54Ci74p-22" value="" style="endArrow=classic;html=1;rounded=0;" parent="1" edge="1">
          <mxGeometry width="50" height="50" relative="1" as="geometry">
            <mxPoint x="830" y="640" as="sourcePoint" />
            <mxPoint x="370" y="640" as="targetPoint" />
          </mxGeometry>
        </mxCell>
        <mxCell id="CgTQPgQeJVzxc54Ci74p-23" value="OK" style="text;html=1;strokeColor=none;fillColor=none;align=center;verticalAlign=middle;whiteSpace=wrap;rounded=0;" parent="1" vertex="1">
          <mxGeometry x="640" y="600" width="160" height="30" as="geometry" />
        </mxCell>
        <mxCell id="CgTQPgQeJVzxc54Ci74p-24" value="" style="shape=flexArrow;endArrow=classic;html=1;rounded=0;" parent="1" edge="1">
          <mxGeometry width="50" height="50" relative="1" as="geometry">
            <mxPoint x="350" y="479.23" as="sourcePoint" />
            <mxPoint x="290" y="479.23" as="targetPoint" />
          </mxGeometry>
        </mxCell>
        <mxCell id="CgTQPgQeJVzxc54Ci74p-29" value="Process" style="swimlane;fontStyle=0;childLayout=stackLayout;horizontal=1;startSize=30;horizontalStack=0;resizeParent=1;resizeParentMax=0;resizeLast=0;collapsible=1;marginBottom=0;whiteSpace=wrap;html=1;" parent="1" vertex="1">
          <mxGeometry x="80" y="440" width="200" height="170" as="geometry" />
        </mxCell>
        <mxCell id="CgTQPgQeJVzxc54Ci74p-30" value="-&amp;gt; createSegment on fs." style="text;strokeColor=none;fillColor=none;align=left;verticalAlign=middle;spacingLeft=4;spacingRight=4;overflow=hidden;points=[[0,0.5],[1,0.5]];portConstraint=eastwest;rotatable=0;whiteSpace=wrap;html=1;" parent="CgTQPgQeJVzxc54Ci74p-29" vertex="1">
          <mxGeometry y="30" width="200" height="30" as="geometry" />
        </mxCell>
        <mxCell id="CgTQPgQeJVzxc54Ci74p-31" value="-&amp;gt; create segment on zk(metadata is initialized and this bookie) with TTL" style="text;strokeColor=none;fillColor=none;align=left;verticalAlign=middle;spacingLeft=4;spacingRight=4;overflow=hidden;points=[[0,0.5],[1,0.5]];portConstraint=eastwest;rotatable=0;whiteSpace=wrap;html=1;" parent="CgTQPgQeJVzxc54Ci74p-29" vertex="1">
          <mxGeometry y="60" width="200" height="50" as="geometry" />
        </mxCell>
        <mxCell id="S1WYBmKWQvCnVxeHSvn0-3" value="-&amp;gt; update my resource usage." style="text;html=1;strokeColor=none;fillColor=none;align=left;verticalAlign=middle;whiteSpace=wrap;rounded=0;" parent="CgTQPgQeJVzxc54Ci74p-29" vertex="1">
          <mxGeometry y="110" width="200" height="30" as="geometry" />
        </mxCell>
        <mxCell id="CgTQPgQeJVzxc54Ci74p-32" value="If timeout, bookie selects another batch of peers." style="text;strokeColor=none;fillColor=none;align=left;verticalAlign=middle;spacingLeft=4;spacingRight=4;overflow=hidden;points=[[0,0.5],[1,0.5]];portConstraint=eastwest;rotatable=0;whiteSpace=wrap;html=1;" parent="CgTQPgQeJVzxc54Ci74p-29" vertex="1">
          <mxGeometry y="140" width="200" height="30" as="geometry" />
        </mxCell>
        <mxCell id="CgTQPgQeJVzxc54Ci74p-34" value="" style="shape=flexArrow;endArrow=classic;html=1;rounded=0;" parent="1" edge="1">
          <mxGeometry width="50" height="50" relative="1" as="geometry">
            <mxPoint x="600" y="520" as="sourcePoint" />
            <mxPoint x="950" y="520" as="targetPoint" />
          </mxGeometry>
        </mxCell>
        <mxCell id="CgTQPgQeJVzxc54Ci74p-35" value="" style="shape=flexArrow;endArrow=classic;html=1;rounded=0;" parent="1" edge="1">
          <mxGeometry width="50" height="50" relative="1" as="geometry">
            <mxPoint x="850" y="560" as="sourcePoint" />
            <mxPoint x="950" y="560" as="targetPoint" />
          </mxGeometry>
        </mxCell>
        <mxCell id="CgTQPgQeJVzxc54Ci74p-37" value="Response" style="swimlane;fontStyle=0;childLayout=stackLayout;horizontal=1;startSize=40;horizontalStack=0;resizeParent=1;resizeParentMax=0;resizeLast=0;collapsible=1;marginBottom=0;whiteSpace=wrap;html=1;" parent="1" vertex="1">
          <mxGeometry x="960" y="480" width="200" height="160" as="geometry" />
        </mxCell>
        <mxCell id="CgTQPgQeJVzxc54Ci74p-39" value="-&amp;gt; create segment on local" style="text;strokeColor=none;fillColor=none;align=left;verticalAlign=middle;spacingLeft=4;spacingRight=4;overflow=hidden;points=[[0,0.5],[1,0.5]];portConstraint=eastwest;rotatable=0;whiteSpace=wrap;html=1;" parent="CgTQPgQeJVzxc54Ci74p-37" vertex="1">
          <mxGeometry y="40" width="200" height="30" as="geometry" />
        </mxCell>
        <mxCell id="CgTQPgQeJVzxc54Ci74p-40" value="-&amp;gt; monitor leader on zk." style="text;strokeColor=none;fillColor=none;align=left;verticalAlign=middle;spacingLeft=4;spacingRight=4;overflow=hidden;points=[[0,0.5],[1,0.5]];portConstraint=eastwest;rotatable=0;whiteSpace=wrap;html=1;" parent="CgTQPgQeJVzxc54Ci74p-37" vertex="1">
          <mxGeometry y="70" width="200" height="30" as="geometry" />
        </mxCell>
        <mxCell id="S1WYBmKWQvCnVxeHSvn0-1" value="-&amp;gt; craete bookie znode for this segment" style="text;strokeColor=none;fillColor=none;align=left;verticalAlign=middle;spacingLeft=4;spacingRight=4;overflow=hidden;points=[[0,0.5],[1,0.5]];portConstraint=eastwest;rotatable=0;whiteSpace=wrap;html=1;" parent="CgTQPgQeJVzxc54Ci74p-37" vertex="1">
          <mxGeometry y="100" width="200" height="30" as="geometry" />
        </mxCell>
        <mxCell id="S1WYBmKWQvCnVxeHSvn0-2" value="-&amp;gt; update my resource usage." style="text;strokeColor=none;fillColor=none;align=left;verticalAlign=middle;spacingLeft=4;spacingRight=4;overflow=hidden;points=[[0,0.5],[1,0.5]];portConstraint=eastwest;rotatable=0;whiteSpace=wrap;html=1;" parent="CgTQPgQeJVzxc54Ci74p-37" vertex="1">
          <mxGeometry y="130" width="200" height="30" as="geometry" />
        </mxCell>
        <mxCell id="CgTQPgQeJVzxc54Ci74p-46" value="ZK" style="ellipse;shape=cloud;whiteSpace=wrap;html=1;" parent="1" vertex="1">
          <mxGeometry y="160" width="120" height="80" as="geometry" />
        </mxCell>
        <mxCell id="CgTQPgQeJVzxc54Ci74p-48" value="" style="endArrow=classic;html=1;rounded=0;" parent="1" edge="1">
          <mxGeometry width="50" height="50" relative="1" as="geometry">
            <mxPoint x="350" y="280" as="sourcePoint" />
            <mxPoint x="70" y="280" as="targetPoint" />
          </mxGeometry>
        </mxCell>
        <mxCell id="CgTQPgQeJVzxc54Ci74p-49" value="lock(bookies)" style="text;html=1;strokeColor=none;fillColor=none;align=center;verticalAlign=middle;whiteSpace=wrap;rounded=0;" parent="1" vertex="1">
          <mxGeometry x="120" y="240" width="160" height="30" as="geometry" />
        </mxCell>
        <mxCell id="CgTQPgQeJVzxc54Ci74p-50" value="" style="endArrow=classic;html=1;rounded=0;" parent="1" edge="1">
          <mxGeometry width="50" height="50" relative="1" as="geometry">
            <mxPoint x="350" y="320" as="sourcePoint" />
            <mxPoint x="70" y="320" as="targetPoint" />
          </mxGeometry>
        </mxCell>
        <mxCell id="CgTQPgQeJVzxc54Ci74p-51" value="Get bookies." style="text;html=1;strokeColor=none;fillColor=none;align=center;verticalAlign=middle;whiteSpace=wrap;rounded=0;" parent="1" vertex="1">
          <mxGeometry x="120" y="280" width="170" height="30" as="geometry" />
        </mxCell>
        <mxCell id="CgTQPgQeJVzxc54Ci74p-52" value="Select&lt;br&gt;followers" style="ellipse;whiteSpace=wrap;html=1;aspect=fixed;" parent="1" vertex="1">
          <mxGeometry x="200" y="340" width="60" height="60" as="geometry" />
        </mxCell>
        <mxCell id="CgTQPgQeJVzxc54Ci74p-53" value="" style="shape=flexArrow;endArrow=classic;html=1;rounded=0;" parent="1" edge="1">
          <mxGeometry width="50" height="50" relative="1" as="geometry">
            <mxPoint x="350" y="369.6" as="sourcePoint" />
            <mxPoint x="270" y="369.6" as="targetPoint" />
            <Array as="points">
              <mxPoint x="310" y="369.6" />
            </Array>
          </mxGeometry>
        </mxCell>
        <mxCell id="CgTQPgQeJVzxc54Ci74p-56" value="CreateBackup and monitor" style="text;html=1;strokeColor=none;fillColor=none;align=center;verticalAlign=middle;whiteSpace=wrap;rounded=0;" parent="1" vertex="1">
          <mxGeometry x="640" y="520" width="160" height="30" as="geometry" />
        </mxCell>
        <mxCell id="sGn5W6_A0-9izMFCZmFT-1" value="" style="endArrow=none;dashed=1;html=1;dashPattern=1 3;strokeWidth=2;rounded=0;" parent="1" edge="1">
          <mxGeometry width="50" height="50" relative="1" as="geometry">
            <mxPoint x="60" y="720" as="sourcePoint" />
            <mxPoint x="60" y="240" as="targetPoint" />
          </mxGeometry>
        </mxCell>
        <mxCell id="sGn5W6_A0-9izMFCZmFT-2" value="" style="endArrow=classic;html=1;rounded=0;" parent="1" edge="1">
          <mxGeometry width="50" height="50" relative="1" as="geometry">
            <mxPoint x="350" y="680" as="sourcePoint" />
            <mxPoint x="70" y="680" as="targetPoint" />
          </mxGeometry>
        </mxCell>
        <mxCell id="sGn5W6_A0-9izMFCZmFT-3" value="unlock(bookies)" style="text;html=1;strokeColor=none;fillColor=none;align=center;verticalAlign=middle;whiteSpace=wrap;rounded=0;" parent="1" vertex="1">
          <mxGeometry x="130" y="640" width="160" height="30" as="geometry" />
        </mxCell>
      </root>
    </mxGraphModel>
  </diagram>
  <diagram id="z12l38MMRD97akz6iag4" name="Interaction">
    <mxGraphModel dx="1221" dy="1271" grid="0" gridSize="10" guides="1" tooltips="1" connect="1" arrows="1" fold="1" page="0" pageScale="1" pageWidth="1169" pageHeight="827" math="0" shadow="0">
      <root>
        <mxCell id="0" />
        <mxCell id="1" parent="0" />
        <mxCell id="ys_8QjG4ccdNFyJPUPaV-3" style="edgeStyle=orthogonalEdgeStyle;rounded=0;orthogonalLoop=1;jettySize=auto;html=1;entryX=0;entryY=0.5;entryDx=0;entryDy=0;" parent="1" source="ys_8QjG4ccdNFyJPUPaV-1" target="ys_8QjG4ccdNFyJPUPaV-2" edge="1">
          <mxGeometry relative="1" as="geometry" />
        </mxCell>
        <mxCell id="ys_8QjG4ccdNFyJPUPaV-5" style="edgeStyle=orthogonalEdgeStyle;rounded=0;orthogonalLoop=1;jettySize=auto;html=1;entryX=0.5;entryY=0;entryDx=0;entryDy=0;" parent="1" source="ys_8QjG4ccdNFyJPUPaV-1" target="ys_8QjG4ccdNFyJPUPaV-4" edge="1">
          <mxGeometry relative="1" as="geometry" />
        </mxCell>
        <mxCell id="ys_8QjG4ccdNFyJPUPaV-8" value="" style="edgeStyle=orthogonalEdgeStyle;rounded=0;orthogonalLoop=1;jettySize=auto;html=1;entryX=1;entryY=0.5;entryDx=0;entryDy=0;shape=arrow;" parent="1" source="ys_8QjG4ccdNFyJPUPaV-1" target="ys_8QjG4ccdNFyJPUPaV-6" edge="1">
          <mxGeometry relative="1" as="geometry">
            <mxPoint x="440" y="420" as="targetPoint" />
          </mxGeometry>
        </mxCell>
        <mxCell id="ys_8QjG4ccdNFyJPUPaV-10" style="edgeStyle=orthogonalEdgeStyle;rounded=0;orthogonalLoop=1;jettySize=auto;html=1;entryX=0.5;entryY=1;entryDx=0;entryDy=0;shape=arrow;" parent="1" source="ys_8QjG4ccdNFyJPUPaV-1" target="ys_8QjG4ccdNFyJPUPaV-9" edge="1">
          <mxGeometry relative="1" as="geometry" />
        </mxCell>
        <mxCell id="ys_8QjG4ccdNFyJPUPaV-1" value="Bookie" style="ellipse;whiteSpace=wrap;html=1;fontSize=28;fillColor=#f5f5f5;fontColor=#333333;strokeColor=#666666;" parent="1" vertex="1">
          <mxGeometry x="520" y="360" width="120" height="120" as="geometry" />
        </mxCell>
        <mxCell id="ys_8QjG4ccdNFyJPUPaV-2" value="Bookie&lt;br&gt;Peers" style="ellipse;whiteSpace=wrap;html=1;fontSize=28;fillColor=#fff2cc;strokeColor=#d6b656;" parent="1" vertex="1">
          <mxGeometry x="1000" y="360" width="120" height="120" as="geometry" />
        </mxCell>
        <mxCell id="ys_8QjG4ccdNFyJPUPaV-4" value="Brokers" style="ellipse;whiteSpace=wrap;html=1;fontSize=28;fillColor=#dae8fc;strokeColor=#6c8ebf;" parent="1" vertex="1">
          <mxGeometry x="520" y="800" width="120" height="120" as="geometry" />
        </mxCell>
        <mxCell id="ys_8QjG4ccdNFyJPUPaV-6" value="FS" style="ellipse;whiteSpace=wrap;html=1;fontSize=28;fillColor=#d5e8d4;strokeColor=#82b366;" parent="1" vertex="1">
          <mxGeometry y="360" width="120" height="120" as="geometry" />
        </mxCell>
        <mxCell id="ys_8QjG4ccdNFyJPUPaV-9" value="ZK" style="ellipse;whiteSpace=wrap;html=1;fontSize=28;fillColor=#f8cecc;strokeColor=#b85450;" parent="1" vertex="1">
          <mxGeometry x="520" y="-40" width="120" height="120" as="geometry" />
        </mxCell>
        <mxCell id="ONccKGwQyZRgHABdWW6e-1" value="Segment persist&amp;nbsp;znode" style="text;html=1;strokeColor=default;fillColor=none;align=center;verticalAlign=middle;whiteSpace=wrap;rounded=0;dashed=1;" parent="1" vertex="1">
          <mxGeometry x="600" y="120" width="160" height="40" as="geometry" />
        </mxCell>
        <mxCell id="ONccKGwQyZRgHABdWW6e-2" value="Leadership change" style="text;html=1;strokeColor=default;fillColor=none;align=center;verticalAlign=middle;whiteSpace=wrap;rounded=0;dashed=1;" parent="1" vertex="1">
          <mxGeometry x="600" y="200" width="160" height="40" as="geometry" />
        </mxCell>
        <mxCell id="ODLnTJtgaqOnIWI0tphd-1" value="Leader election" style="text;html=1;strokeColor=default;fillColor=none;align=center;verticalAlign=middle;whiteSpace=wrap;rounded=0;dashed=1;" parent="1" vertex="1">
          <mxGeometry x="720" y="360" width="160" height="40" as="geometry" />
        </mxCell>
        <mxCell id="ODLnTJtgaqOnIWI0tphd-2" value="backup segments assignment" style="text;html=1;strokeColor=default;fillColor=none;align=center;verticalAlign=middle;whiteSpace=wrap;rounded=0;dashed=1;" parent="1" vertex="1">
          <mxGeometry x="720" y="440" width="160" height="40" as="geometry" />
        </mxCell>
      </root>
    </mxGraphModel>
  </diagram>
  <diagram id="rdbeHqzTfmpnZ7yIDo9f" name="Architecture">
    <mxGraphModel dx="2279" dy="1619" grid="0" gridSize="10" guides="1" tooltips="1" connect="1" arrows="1" fold="1" page="1" pageScale="1" pageWidth="1169" pageHeight="827" math="0" shadow="0">
      <root>
        <mxCell id="0" />
        <mxCell id="1" parent="0" />
        <mxCell id="pa_D7Bhf4r_Cs8m8t2DE-1" value="ZK" style="ellipse;shape=cloud;whiteSpace=wrap;html=1;fillColor=#a20025;fontColor=#ffffff;strokeColor=#6F0000;" vertex="1" parent="1">
          <mxGeometry x="-787" y="-582" width="120" height="80" as="geometry" />
        </mxCell>
        <mxCell id="XbQ1tNsK-pNiaJlIhzOY-1" value="Local Filesystem" style="rounded=0;whiteSpace=wrap;html=1;fillColor=#008a00;fontColor=#ffffff;strokeColor=#005700;" vertex="1" parent="1">
          <mxGeometry x="-848" y="-502" width="120" height="60" as="geometry" />
        </mxCell>
        <mxCell id="XbQ1tNsK-pNiaJlIhzOY-2" value="RPC" style="rounded=0;whiteSpace=wrap;html=1;fillColor=#0050ef;fontColor=#ffffff;strokeColor=#001DBC;" vertex="1" parent="1">
          <mxGeometry x="-728" y="-502" width="120" height="60" as="geometry" />
        </mxCell>
        <mxCell id="XbQ1tNsK-pNiaJlIhzOY-3" value="WAL" style="rounded=0;whiteSpace=wrap;html=1;fillColor=#60a917;fontColor=#ffffff;strokeColor=#2D7600;" vertex="1" parent="1">
          <mxGeometry x="-848" y="-442" width="120" height="60" as="geometry" />
        </mxCell>
        <mxCell id="XbQ1tNsK-pNiaJlIhzOY-4" value="Persistence" style="rounded=0;whiteSpace=wrap;html=1;fillColor=#1ba1e2;fontColor=#ffffff;strokeColor=#006EAF;" vertex="1" parent="1">
          <mxGeometry x="-728" y="-442" width="120" height="60" as="geometry" />
        </mxCell>
      </root>
    </mxGraphModel>
  </diagram>
</mxfile>
